<?xml version="1.0" encoding="UTF-8" standalone="no"?>
<svg
   xmlns:dc="http://purl.org/dc/elements/1.1/"
   xmlns:cc="http://creativecommons.org/ns#"
   xmlns:rdf="http://www.w3.org/1999/02/22-rdf-syntax-ns#"
   xmlns:svg="http://www.w3.org/2000/svg"
   xmlns="http://www.w3.org/2000/svg"
   xmlns:xlink="http://www.w3.org/1999/xlink"
   viewBox="0 0 64 64"
   version="1.1"
   id="svg3344"
   height="64"
   width="64">
  <defs
     id="defs3346">
    <linearGradient
       id="linearGradient3820">
      <stop
         id="stop3822"
         style="stop-color:#070135;stop-opacity:1"
         offset="0" />
      <stop
         id="stop3824"
         style="stop-color:#612d50;stop-opacity:1"
         offset="1" />
    </linearGradient>
    <linearGradient
       x1="314.62408"
       y1="547.20599"
       x2="427.37671"
       y2="432.48389"
       id="linearGradient3834"
       xlink:href="#linearGradient3820"
       gradientUnits="userSpaceOnUse"
       gradientTransform="translate(-52,0)" />
  </defs>
  <metadata
     id="metadata3349">
    <rdf:RDF>
      <cc:Work
         rdf:about="">
        <dc:format>image/svg+xml</dc:format>
        <dc:type
           rdf:resource="http://purl.org/dc/dcmitype/StillImage" />
        <dc:title></dc:title>
      </cc:Work>
    </rdf:RDF>
  </metadata>
  <g
     id="layer1">
    <g
       transform="matrix(0.56175892,0,0,0.56178148,0.32560946,0.36192554)"
       id="g3797">
      <path
         style="fill:#f05133"
         d="M 111.78,51.977 62.035,2.2381 c -2.8622,-2.8648 -7.5082,-2.8648 -10.374,0 l -10.329,10.33 13.102,13.102 c 3.0459,-1.0284 6.5371,-0.33888 8.9639,2.0884 2.4394,2.4424 3.124,5.9634 2.0698,9.0195 l 12.628,12.628 c 3.0551,-1.0528 6.58,-0.37262 9.0195,2.0712 3.4106,3.4096 3.4106,8.9345 0,12.345 -3.4111,3.4116 -8.936,3.4116 -12.349,0 -2.5645,-2.5665 -3.1988,-6.3345 -1.8999,-9.4942 l -11.777,-11.777 -0.001,30.991 c 0.8315,0.41162 1.6162,0.961 2.3091,1.6509 3.4096,3.4092 3.4096,8.9331 0,12.348 -3.4106,3.4091 -8.938,3.4091 -12.345,0 -3.4101,-3.4146 -3.4101,-8.9385 0,-12.348 0.84275,-0.84125 1.8179,-1.478 2.8584,-1.9048 l 0,-31.279 c -1.041,-0.425 -2.015,-1.057 -2.859,-1.905 -2.583,-2.581 -3.2051,-6.372 -1.8804,-9.5439 l -12.916,-12.918 -34.106,34.105 c -2.8657,2.867 -2.8657,7.513 0,10.378 l 49.742,49.739 c 2.8638,2.8648 7.5082,2.8648 10.376,0 l 49.512,-49.504 c 2.8648,-2.8662 2.8648,-7.5136 0,-10.379"
         id="path3789" />
    </g>
  </g>
</svg>
