<?xml version="1.0" encoding="UTF-8" standalone="no"?>
<svg
   xmlns:dc="http://purl.org/dc/elements/1.1/"
   xmlns:cc="http://creativecommons.org/ns#"
   xmlns:rdf="http://www.w3.org/1999/02/22-rdf-syntax-ns#"
   xmlns:svg="http://www.w3.org/2000/svg"
   xmlns="http://www.w3.org/2000/svg"
   xmlns:xlink="http://www.w3.org/1999/xlink"
   viewBox="0 0 64 64"
   version="1.1"
   id="svg3344"
   height="64"
   width="64">
  <defs
     id="defs3346">
    <linearGradient
       id="linearGradient3820">
      <stop
         id="stop3822"
         style="stop-color:#070135;stop-opacity:1"
         offset="0" />
      <stop
         id="stop3824"
         style="stop-color:#612d50;stop-opacity:1"
         offset="1" />
    </linearGradient>
    <linearGradient
       x1="314.62408"
       y1="547.20599"
       x2="427.37671"
       y2="432.48389"
       id="linearGradient3834"
       xlink:href="#linearGradient3820"
       gradientUnits="userSpaceOnUse"
       gradientTransform="translate(-52,0)" />
    <linearGradient
       id="linearGradient2795">
      <stop
         style="stop-color:#b8b8b8;stop-opacity:0.49803922"
         offset="0"
         id="stop2797" />
      <stop
         style="stop-color:#7f7f7f;stop-opacity:0"
         offset="1"
         id="stop2799" />
    </linearGradient>
    <linearGradient
       id="linearGradient2787">
      <stop
         style="stop-color:#7f7f7f;stop-opacity:0.5"
         offset="0"
         id="stop2789" />
      <stop
         style="stop-color:#7f7f7f;stop-opacity:0"
         offset="1"
         id="stop2791" />
    </linearGradient>
    <linearGradient
       id="linearGradient3676">
      <stop
         style="stop-color:#b2b2b2;stop-opacity:0.5"
         offset="0"
         id="stop3678" />
      <stop
         style="stop-color:#b3b3b3;stop-opacity:0"
         offset="1"
         id="stop3680" />
    </linearGradient>
    <linearGradient
       id="linearGradient3236">
      <stop
         style="stop-color:#f4f4f4;stop-opacity:1"
         offset="0"
         id="stop3244" />
      <stop
         style="stop-color:#ffffff;stop-opacity:1"
         offset="1"
         id="stop3240" />
    </linearGradient>
    <linearGradient
       id="linearGradient4671">
      <stop
         style="stop-color:#ffd43b;stop-opacity:1"
         offset="0"
         id="stop4673" />
      <stop
         style="stop-color:#ffe873;stop-opacity:1"
         offset="1"
         id="stop4675" />
    </linearGradient>
    <linearGradient
       id="linearGradient4689">
      <stop
         style="stop-color:#5a9fd4;stop-opacity:1"
         offset="0"
         id="stop4691" />
      <stop
         style="stop-color:#306998;stop-opacity:1"
         offset="1"
         id="stop4693" />
    </linearGradient>
    <linearGradient
       x1="224.23996"
       y1="144.75717"
       x2="-65.308502"
       y2="144.75717"
       id="linearGradient2987"
       xlink:href="#linearGradient4671"
       gradientUnits="userSpaceOnUse"
       gradientTransform="translate(100.2702,99.61116)" />
    <linearGradient
       x1="172.94208"
       y1="77.475983"
       x2="26.670298"
       y2="76.313133"
       id="linearGradient2990"
       xlink:href="#linearGradient4689"
       gradientUnits="userSpaceOnUse"
       gradientTransform="translate(100.2702,99.61116)" />
    <linearGradient
       x1="224.23996"
       y1="144.75717"
       x2="-65.308502"
       y2="144.75717"
       id="linearGradient2255"
       xlink:href="#linearGradient4671"
       gradientUnits="userSpaceOnUse"
       gradientTransform="matrix(0.562541,0,0,0.567972,-11.5974,-7.60954)" />
    <linearGradient
       x1="172.94208"
       y1="76.176224"
       x2="26.670298"
       y2="76.313133"
       id="linearGradient2258"
       xlink:href="#linearGradient4689"
       gradientUnits="userSpaceOnUse"
       gradientTransform="matrix(0.562541,0,0,0.567972,-11.5974,-7.60954)" />
    <radialGradient
       cx="61.518883"
       cy="132.28575"
       r="29.036913"
       fx="61.518883"
       fy="132.28575"
       id="radialGradient2801"
       xlink:href="#linearGradient2795"
       gradientUnits="userSpaceOnUse"
       gradientTransform="matrix(1,0,0,0.177966,0,108.7434)" />
    <linearGradient
       x1="150.96111"
       y1="192.35176"
       x2="112.03144"
       y2="137.27299"
       id="linearGradient1475"
       xlink:href="#linearGradient4671"
       gradientUnits="userSpaceOnUse"
       gradientTransform="matrix(0.562541,0,0,0.567972,-9.399749,-5.305317)" />
    <linearGradient
       x1="26.648937"
       y1="20.603781"
       x2="135.66525"
       y2="114.39767"
       id="linearGradient1478"
       xlink:href="#linearGradient4689"
       gradientUnits="userSpaceOnUse"
       gradientTransform="matrix(0.562541,0,0,0.567972,-9.399749,-5.305317)" />
    <radialGradient
       cx="61.518883"
       cy="132.28575"
       r="29.036913"
       fx="61.518883"
       fy="132.28575"
       id="radialGradient1480"
       xlink:href="#linearGradient2795"
       gradientUnits="userSpaceOnUse"
       gradientTransform="matrix(2.382716e-8,-0.296405,1.43676,4.683673e-7,-128.544,150.5202)" />
  </defs>
  <metadata
     id="metadata3349">
    <rdf:RDF>
      <cc:Work
         rdf:about="">
        <dc:format>image/svg+xml</dc:format>
        <dc:type
           rdf:resource="http://purl.org/dc/dcmitype/StillImage" />
        <dc:title></dc:title>
      </cc:Work>
    </rdf:RDF>
  </metadata>
  <g
     id="layer1">
    <g
       transform="matrix(0.18950143,0,0,0.18950143,-242.82326,89.502682)"
       id="g3995">
      <g
         style="display:none"
         id="sticker-border"
         display="none">
	<g
   style="display:inline"
   id="sticker-border_1_"
   display="inline">
		<path
   style="fill:#ffffff"
   d="m 884.727,85.78 c -8.206,-6.59 -20.024,-13.024 -33.344,-18.146 -14.848,-5.71 -29.618,-8.985 -40.526,-8.985 -17.347,0 -23.23,8.565 -25.168,13.603 -0.287,0.736 -0.47,1.364 -0.589,1.817 -0.042,0.147 -0.082,0.294 -0.119,0.443 -0.646,2.576 -0.744,5.248 -0.294,7.948 0.639,4.519 0.841,10.372 0.431,12.346 l -21.273,55.315 c -0.083,-0.028 -0.17,-0.058 -0.262,-0.089 -0.521,-0.173 -1.064,-0.336 -1.562,-0.47 -0.217,-0.061 -0.434,-0.12 -0.678,-0.18 -0.725,-0.179 -1.423,-0.327 -2.172,-0.459 -0.148,-0.026 -0.302,-0.051 -0.46,-0.074 -0.548,-0.088 -1.113,-0.167 -1.697,-0.234 -0.199,-0.023 -0.403,-0.044 -0.694,-0.072 -0.512,-0.05 -1.039,-0.091 -1.645,-0.127 l -0.592,-0.033 c -0.839,-0.038 -1.719,-0.07 -2.621,-0.047 -10.948,0.295 -23.923,5.237 -28.992,7.347 -5.51,2.293 -13.367,6.024 -19.514,10.779 -0.315,0.244 -0.621,0.5 -0.916,0.768 -0.022,-2.011 -0.295,-3.963 -0.815,-5.864 -1.159,-4.233 -3.565,-7.94 -6.921,-10.751 -0.289,-0.35 -0.582,-0.683 -0.867,-0.985 -0.197,-0.212 -0.404,-0.422 -0.618,-0.629 -0.453,-0.447 -0.929,-0.877 -1.459,-1.316 -0.186,-0.152 -0.373,-0.302 -0.598,-0.475 -0.486,-0.373 -1,-0.733 -1.499,-1.055 -0.223,-0.148 -0.442,-0.287 -0.627,-0.396 -0.699,-0.421 -1.433,-0.812 -2.119,-1.135 -0.222,-0.105 -0.453,-0.208 -0.689,-0.309 -0.503,-0.221 -1.026,-0.43 -1.572,-0.629 -0.219,-0.079 -0.442,-0.156 -0.701,-0.243 -0.517,-0.172 -1.053,-0.333 -1.595,-0.479 -0.212,-0.06 -0.426,-0.117 -0.623,-0.165 -0.742,-0.184 -1.453,-0.334 -2.14,-0.455 -0.158,-0.028 -0.322,-0.055 -0.491,-0.08 -0.553,-0.09 -1.124,-0.169 -1.709,-0.236 -0.198,-0.023 -0.402,-0.044 -0.69,-0.072 -0.512,-0.05 -1.042,-0.091 -1.648,-0.127 l -0.592,-0.033 c -0.839,-0.038 -1.718,-0.069 -2.621,-0.047 -13.84,0.374 -36.506,8.844 -48.507,18.127 -0.508,0.393 -0.989,0.818 -1.442,1.272 -0.448,0.449 -0.867,0.906 -1.222,1.329 -0.152,0.18 -0.293,0.352 -0.413,0.504 -0.306,0.384 -0.596,0.777 -0.88,1.194 -0.145,0.209 -0.308,0.458 -0.444,0.678 -0.488,0.79 -0.912,1.608 -1.26,2.432 -0.033,0.08 -0.066,0.159 -0.099,0.239 -0.075,0.188 -0.15,0.386 -0.221,0.584 -0.306,0.848 -0.543,1.719 -0.706,2.597 -0.016,0.086 -0.031,0.172 -0.046,0.258 -0.047,0.28 -0.098,0.646 -0.128,0.927 -0.008,0.064 -0.014,0.128 -0.021,0.192 -0.123,1.271 -0.093,2.546 0.089,3.799 0.08,0.565 0.192,1.128 0.334,1.677 0.565,2.179 1.571,4.168 2.991,5.913 l 0,0 c 0.394,0.483 0.823,0.949 1.275,1.381 0.406,0.392 0.833,0.76 1.277,1.104 0.212,0.275 0.433,0.542 0.661,0.801 -4.441,6.982 -9.409,14.381 -14.374,21.543 -0.414,-0.409 -0.841,-0.808 -1.29,-1.189 -0.611,-0.731 -1.267,-1.422 -1.956,-2.062 -0.182,-0.17 -0.371,-0.339 -0.57,-0.511 -0.479,-0.419 -0.986,-0.827 -1.513,-1.217 -0.193,-0.143 -0.388,-0.284 -0.624,-0.448 -0.53,-0.367 -1.089,-0.72 -1.703,-1.074 -0.189,-0.112 -0.406,-0.235 -0.578,-0.328 -0.784,-0.423 -1.614,-0.813 -2.453,-1.152 -0.24,-0.098 -0.487,-0.191 -0.744,-0.282 -0.617,-0.228 -1.242,-0.432 -1.814,-0.594 -0.291,-0.083 -0.588,-0.162 -0.912,-0.243 -0.606,-0.149 -1.219,-0.276 -1.902,-0.393 -0.287,-0.052 -0.574,-0.099 -0.84,-0.134 -0.929,-0.126 -1.865,-0.421 -2.804,-0.452 -0.225,-0.006 -0.404,-0.222 -0.742,-0.222 l -0.135,0 c -0.632,0 -1.275,0.237 -1.977,0.284 -0.271,0.02 -0.548,0.153 -0.881,0.186 -0.664,0.067 -1.351,0.215 -2.098,0.342 -0.253,0.042 -0.505,0.113 -0.817,0.175 -0.966,0.194 -1.857,0.427 -2.722,0.68 -7.122,2.053 -15.141,7.306 -25.512,31.008 -3.36,4.98 -7.167,10.262 -11.207,15.583 -1.445,-4.979 -4.248,-9.671 -8.851,-13.617 -0.087,-0.102 -0.176,-0.202 -0.267,-0.303 -0.333,-0.371 -0.678,-0.73 -1.023,-1.078 -0.3,-0.302 -0.606,-0.596 -0.959,-0.922 -0.368,-0.337 -0.741,-0.666 -1.086,-0.95 -0.332,-0.276 -0.673,-0.542 -1.017,-0.802 -10e-4,-0.001 -0.097,-0.074 -0.098,-0.074 -0.353,-0.269 -0.707,-0.53 -1.07,-0.779 -0.394,-0.271 -0.799,-0.525 -1.252,-0.802 -0.535,-0.329 -1.081,-0.645 -1.684,-0.966 -0.54,-0.286 -1.086,-0.565 -1.643,-0.819 -0.338,-0.154 -0.682,-0.298 -1.113,-0.473 -0.44,-0.181 -0.882,-0.358 -1.395,-0.543 -0.374,-0.133 -0.752,-0.257 -1.132,-0.378 -0.452,-0.144 -0.909,-0.279 -1.39,-0.41 -0.394,-0.106 -0.789,-0.207 -1.146,-0.289 -0.489,-0.115 -0.986,-0.215 -1.555,-0.322 -0.35,-0.066 -0.7,-0.13 -1.071,-0.187 -0.542,-0.082 -1.091,-0.148 -1.657,-0.207 -0.285,-0.035 -0.572,-0.066 -0.933,-0.096 -0.843,-0.066 -1.7,-0.103 -2.514,-0.111 -0.278,-0.002 -0.617,0.001 -0.874,0.009 -0.6,0.008 -1.201,0.024 -1.758,0.058 -0.308,0.018 -0.618,0.042 -0.929,0.069 l -0.138,0.012 c -0.543,0.047 -1.087,0.103 -1.599,0.168 -0.366,0.046 -0.73,0.098 -1.041,0.146 -0.555,0.084 -1.111,0.184 -1.711,0.3 -0.317,0.062 -0.633,0.125 -0.955,0.195 -0.612,0.135 -1.228,0.289 -1.826,0.45 -0.26,0.065 -0.518,0.134 -0.774,0.208 -0.875,0.251 -1.739,0.528 -2.625,0.842 -0.179,0.064 -0.358,0.132 -0.547,0.207 -0.654,0.242 -1.309,0.5 -1.942,0.769 -0.275,0.116 -0.551,0.24 -0.826,0.366 l -0.071,0.033 c -0.545,0.245 -1.09,0.499 -1.696,0.799 -0.294,0.147 -0.591,0.301 -0.909,0.468 -0.53,0.278 -1.059,0.569 -1.627,0.896 -0.281,0.161 -0.561,0.322 -0.867,0.506 -0.555,0.334 -1.108,0.687 -1.659,1.049 l -0.086,0.056 c -0.228,0.146 -0.453,0.294 -0.677,0.446 -0.843,0.575 -1.615,1.133 -2.319,1.675 -2.667,2.033 -5.45,4.448 -8.288,7.074 -1.374,-3.202 -3.341,-6.129 -5.858,-8.629 13.752,-8.713 27.506,-19.075 37.751,-28.732 0.034,-0.033 0.069,-0.066 0.104,-0.099 17.143,-16.472 26.104,-34.018 25.234,-49.407 -0.495,-8.778 -4.166,-16.487 -10.39,-21.92 -0.458,-0.521 -0.938,-1.031 -1.437,-1.525 -0.06,-0.06 -0.137,-0.136 -0.187,-0.185 -0.379,-0.369 -0.766,-0.728 -1.166,-1.078 l 0,0 c -0.058,-0.051 -0.116,-0.101 -0.173,-0.15 -0.688,-0.594 -1.415,-1.166 -2.215,-1.739 -0.089,-0.064 -0.215,-0.154 -0.304,-0.216 -0.395,-0.274 -0.797,-0.539 -1.196,-0.79 l -0.338,-0.208 c -0.028,-0.018 -0.058,-0.035 -0.086,-0.053 -1.218,-0.739 -2.507,-1.407 -3.889,-2.011 l -0.581,-0.246 c -0.382,-0.157 -0.766,-0.312 -1.198,-0.472 -0.185,-0.068 -0.373,-0.133 -0.488,-0.171 -0.703,-0.247 -1.421,-0.474 -2.109,-0.668 -0.276,-0.078 -0.555,-0.155 -0.842,-0.229 -0.364,-0.093 -0.729,-0.183 -1.084,-0.262 -0.32,-0.072 -0.65,-0.139 -1.029,-0.214 -0.521,-0.102 -1.047,-0.194 -1.573,-0.275 -0.36,-0.056 -0.723,-0.108 -1.068,-0.151 -0.341,-0.043 -0.683,-0.082 -1.008,-0.114 -0.38,-0.038 -0.765,-0.07 -1.188,-0.101 -0.354,-0.025 -0.708,-0.049 -1.085,-0.067 -0.515,-0.024 -1.034,-0.04 -1.6,-0.047 l -0.346,-0.001 -0.5,0.003 c -0.428,0.003 -0.859,0.013 -1.335,0.03 l -0.104,0.003 c -0.224,0.007 -0.448,0.015 -0.675,0.027 -0.638,0.034 -1.284,0.08 -1.881,0.136 -0.23,0.021 -0.462,0.045 -0.694,0.07 l -0.085,0.009 c -0.477,0.05 -0.958,0.108 -1.445,0.174 l -0.1,0.013 c -0.219,0.029 -0.438,0.059 -0.653,0.091 -0.665,0.099 -1.336,0.209 -1.994,0.332 -0.185,0.034 -0.372,0.072 -0.539,0.107 -0.552,0.107 -1.107,0.224 -1.679,0.354 l -0.693,0.16 c -0.639,0.152 -1.283,0.315 -1.881,0.478 l -0.346,0.093 c -0.683,0.189 -1.374,0.396 -2.056,0.608 l -0.69,0.22 c -0.584,0.189 -1.173,0.388 -1.805,0.61 L 475,122.835 c -0.719,0.259 -1.445,0.535 -2.164,0.819 l -0.591,0.238 c -0.585,0.237 -1.175,0.484 -1.787,0.749 l -0.529,0.229 c -0.736,0.325 -1.478,0.665 -2.222,1.02 l -0.461,0.224 c -0.62,0.3 -1.245,0.611 -1.831,0.913 l -0.625,0.321 c -0.751,0.392 -1.506,0.796 -2.284,1.229 l -0.217,0.124 c -0.685,0.383 -1.375,0.783 -2.085,1.204 l -0.584,0.349 c -0.692,0.416 -1.387,0.843 -2.07,1.275 l -0.253,0.159 c -0.761,0.484 -1.528,0.989 -2.322,1.522 l -0.565,0.384 c -0.64,0.435 -1.283,0.882 -1.927,1.34 l -0.463,0.328 c -0.767,0.549 -1.537,1.115 -2.313,1.7 l -0.527,0.401 c -0.632,0.481 -1.267,0.973 -1.892,1.466 l -0.587,0.464 c -0.774,0.619 -1.551,1.25 -2.317,1.89 l -0.388,0.328 c -0.665,0.559 -1.333,1.131 -2.012,1.723 l -0.628,0.551 c -0.787,0.693 -1.575,1.397 -2.389,2.145 -1.131,1.043 -2.249,2.089 -3.357,3.137 -25.939,24.541 -46.057,50.794 -63.312,82.623 -0.696,1.285 -1.387,2.577 -2.075,3.881 -1.368,2.594 -2.734,5.252 -4.059,7.899 -1.728,3.452 -3.458,7.028 -5.171,10.685 -1.444,-4.89 -4.287,-9.294 -8.356,-12.823 -0.392,-0.447 -0.81,-0.895 -1.27,-1.357 -0.141,-0.146 -0.284,-0.291 -0.433,-0.435 -0.039,-0.038 -0.077,-0.075 -0.116,-0.112 -0.575,-0.547 -1.195,-1.086 -1.882,-1.637 -0.196,-0.163 -0.4,-0.327 -0.672,-0.536 -0.759,-0.575 -1.473,-1.047 -1.97,-1.367 -0.235,-0.157 -0.475,-0.312 -0.802,-0.513 -0.744,-0.448 -1.446,-0.82 -1.98,-1.096 -0.302,-0.163 -0.606,-0.32 -0.899,-0.462 -0.782,-0.376 -1.496,-0.672 -2.054,-0.899 -0.326,-0.141 -0.653,-0.275 -0.972,-0.396 -0.635,-0.241 -1.307,-0.463 -1.984,-0.679 l -0.128,-0.042 c -0.344,-0.116 -0.689,-0.228 -1.051,-0.333 -0.618,-0.179 -1.271,-0.34 -1.925,-0.496 l -0.228,-0.056 c -0.347,-0.089 -0.694,-0.174 -1.115,-0.265 -0.65,-0.138 -1.335,-0.257 -2.02,-0.37 l -0.208,-0.037 c -0.367,-0.068 -0.733,-0.132 -1.119,-0.188 -0.768,-0.11 -1.578,-0.197 -2.39,-0.281 -0.346,-0.043 -0.692,-0.082 -1.072,-0.114 -1.168,-0.098 -2.367,-0.165 -3.469,-0.197 -15.166,-0.545 -31.467,3.949 -45.817,12.154 1.83,-1.358 3.546,-2.912 5.105,-4.643 6.151,-6.793 9.309,-15.249 8.663,-23.286 -0.512,-6.357 -3.37,-11.972 -8.06,-15.854 -0.209,-0.258 -0.461,-0.554 -0.76,-0.875 -0.73,-0.785 -1.522,-1.52 -2.362,-2.192 -4.096,-3.273 -9.168,-5.003 -14.67,-5.003 -8.542,0 -17.354,4.298 -23.609,11.507 -0.586,0.655 -1.161,1.349 -1.775,2.145 -0.16,0.208 -0.312,0.416 -0.501,0.676 -0.417,0.568 -0.813,1.139 -1.169,1.688 -0.183,0.281 -0.36,0.561 -0.516,0.817 -0.37,0.605 -0.731,1.24 -1.038,1.823 -0.126,0.229 -0.249,0.46 -0.379,0.72 -0.462,0.925 -0.855,1.805 -1.201,2.687 -0.022,0.056 -0.043,0.112 -0.064,0.168 -0.32,0.832 -0.604,1.688 -0.883,2.664 -0.06,0.212 -0.114,0.421 -0.157,0.595 -0.205,0.783 -0.376,1.573 -0.51,2.343 -0.04,0.229 -0.078,0.455 -0.115,0.704 -0.12,0.816 -0.204,1.63 -0.251,2.471 -0.014,0.2 -0.025,0.407 -0.03,0.585 -0.047,1.469 0.037,2.911 0.236,4.316 -0.216,0.063 -0.453,0.135 -0.715,0.225 -0.049,0.017 -0.098,0.033 -0.146,0.05 -0.279,0.099 -0.562,0.208 -0.843,0.326 -0.332,0.136 -0.655,0.278 -0.942,0.419 -0.302,0.146 -0.607,0.307 -0.834,0.435 -0.23,0.126 -0.497,0.279 -0.705,0.406 -0.29,0.178 -0.577,0.366 -0.854,0.561 -0.189,0.13 -0.383,0.269 -0.553,0.396 -0.277,0.208 -0.549,0.426 -0.843,0.675 -0.123,0.104 -0.248,0.212 -0.369,0.319 -0.356,0.318 -0.705,0.656 -1.038,1.006 -0.059,0.062 -0.118,0.124 -0.177,0.188 -3.646,3.936 -5.208,9.105 -4.283,14.184 0.382,2.1 1.166,4.058 2.29,5.793 -3.206,5.353 -9.8,12.36 -15.653,17.039 -0.422,0.338 -0.826,0.698 -1.209,1.079 -0.841,0.836 -1.598,1.771 -2.261,2.8 -0.238,0.37 -0.457,0.745 -0.667,1.143 -0.325,0.604 -0.601,1.201 -0.84,1.814 -0.164,0.418 -0.307,0.84 -0.435,1.266 -0.166,0.548 -0.304,1.106 -0.411,1.66 -0.006,0.033 -0.013,0.066 -0.019,0.099 -0.075,0.4 -0.135,0.801 -0.192,1.303 -0.047,0.437 -0.077,0.872 -0.09,1.314 -0.015,0.471 -0.013,0.932 0.01,1.373 0.017,0.345 0.045,0.687 0.079,0.994 0.034,0.324 0.089,0.795 0.195,1.364 0.003,0.021 0.007,0.041 0.011,0.062 0.001,0.003 0.001,0.007 0.002,0.01 0.023,0.122 0.048,0.245 0.075,0.367 0.242,1.143 0.599,2.266 1.062,3.347 0.52,1.213 1.16,2.344 1.901,3.381 -2.556,4.102 -4.959,7.801 -6.97,10.828 l -0.886,1.328 -7.921,11.348 c -0.043,0.059 -0.087,0.117 -0.129,0.177 -26,36.081 -62.154,64.344 -82.308,64.344 -7.695,0 -14.959,-2.671 -20.533,-7.536 -3.475,-3.981 -5.848,-8.882 -6.885,-14.227 -0.725,-4.407 -3.067,-8.213 -6.346,-10.805 -3.118,-3.942 -7.88,-6.434 -13.13,-6.434 -4.783,0 -9.278,2.1 -12.333,5.762 -3.19,3.822 -4.441,8.794 -3.532,14.016 2.499,15.027 8.81,27.331 18.762,36.585 12.707,13.584 31.83,20.759 55.359,20.759 37.455,0 77.283,-26.155 98.439,-50.456 10.424,-11.974 19.664,-24.389 27.398,-36.738 1.263,1.52 2.658,2.747 4.182,4.107 8.161,9.099 20.891,13.872 36.027,13.872 0.045,0 0.091,0 0.136,0 21.118,0 40.104,-9.201 57.209,-21.447 0.087,1.734 0.24,3.525 0.458,5.146 1.567,12.327 7.821,19.68 12.673,24.173 2.068,2.252 4.078,4 5.721,5.407 l 0.144,0.137 c 0.26,0.223 0.544,0.422 0.819,0.627 2.707,14.15 8.886,25.805 18.406,34.656 12.707,13.586 31.83,20.762 55.36,20.762 31.83,0 65.514,-16.282 92.414,-44.672 16.225,-17.118 27.356,-35.074 35.527,-52.213 1.752,2.918 3.972,5.566 6.617,7.841 3.976,4.491 10.913,9.5 22.59,10.992 1.962,0.265 3.986,0.399 6.017,0.399 13.323,0 27.524,-5.407 43.513,-16.737 2.027,5.243 5.133,9.101 8.388,11.915 3.974,4.51 10.863,9.54 22.35,11.01 5.337,0.72 10.952,0.464 16.709,-0.747 l -3.251,8.454 c -0.092,0.239 -0.178,0.479 -0.257,0.721 -7.938,22.026 -0.256,46.55 18.811,60.093 4.318,3.551 9.152,6.367 14.38,8.378 6.007,2.311 12.294,3.481 18.688,3.481 21.302,0 40.154,-12.677 48.209,-32.35 0.105,-0.236 0.205,-0.477 0.298,-0.719 l 99.464,-258.622 c 1.198,-1.804 5.282,-6.078 8.948,-9.355 2.016,-1.652 3.643,-3.622 4.841,-5.865 0.076,-0.142 0.149,-0.285 0.221,-0.429 0.211,-0.407 0.493,-0.985 0.758,-1.681 2.813,-7.333 2.444,-18.743 -15.189,-31.577 z"
   id="path3888" />

	</g>

</g>
      <g
         id="logo">
	<g
   transform="translate(661.81608,-543.83021)"
   id="logo-bg-light">
		<g
   id="test-tube_1_">
			<path
   style="opacity:0.1"
   id="shadow_1_"
   enable-background="new    "
   d="m 802.411,80.363 c -0.151,0.607 -0.155,1.259 -0.027,1.948 0,0 2.065,13.708 -0.279,19.809 l -99.675,259.171 0.008,0.003 c -7.113,19.036 2.419,40.289 21.429,47.601 19.009,7.311 40.325,-2.079 47.801,-20.976 l 0.009,0.004 99.675,-259.172 c 1.949,-5.07 13.064,-14.892 13.064,-14.892 0.558,-0.425 0.99,-0.913 1.285,-1.464 l 0.049,-0.101 c 0.054,-0.108 0.116,-0.212 0.159,-0.325 2.57,-6.683 -14.008,-19.279 -37.028,-28.132 -23.021,-8.854 -43.767,-10.613 -46.337,-3.93 -0.044,0.113 -0.068,0.231 -0.101,0.348 l -0.032,0.108 z" />

			
				<linearGradient
   id="tube_2_"
   gradientUnits="userSpaceOnUse"
   x1="632.00458"
   y1="469.89719"
   x2="695.16028"
   y2="533.05292"
   gradientTransform="matrix(0.9138,-0.4062,0.4062,0.9138,-26.582,55.4643)">
				<stop
   offset="0"
   style="stop-color:#919191"
   id="stop3895" />

				<stop
   offset="1"
   style="stop-color:#FFFFFF"
   id="stop3897" />

			</linearGradient>

			<path
   style="fill:url(#tube_2_)"
   id="tube_1_"
   d="m 799.53,78.16 c -0.152,0.607 -0.156,1.259 -0.027,1.948 0,0 2.065,13.709 -0.28,19.809 l -99.675,259.171 0.009,0.003 c -7.113,19.036 2.419,40.289 21.429,47.601 19.008,7.311 40.325,-2.079 47.801,-20.976 l 0.009,0.004 99.675,-259.172 c 1.948,-5.07 13.065,-14.892 13.065,-14.892 0.558,-0.425 0.99,-0.912 1.285,-1.464 l 0.048,-0.101 c 0.054,-0.108 0.116,-0.212 0.159,-0.325 2.57,-6.683 -14.008,-19.279 -37.027,-28.132 -23.022,-8.854 -43.767,-10.613 -46.337,-3.93 -0.044,0.113 -0.068,0.231 -0.101,0.348 l -0.033,0.108 z" />

			
				<linearGradient
   id="liquid_2_"
   gradientUnits="userSpaceOnUse"
   x1="608.25519"
   y1="518.07593"
   x2="646.48993"
   y2="556.31049"
   gradientTransform="matrix(0.9138,-0.4062,0.4062,0.9138,-26.582,55.4643)">
				<stop
   offset="0"
   style="stop-color:#990000"
   id="stop3901" />

				<stop
   offset="1"
   style="stop-color:#E80000"
   id="stop3903" />

			</linearGradient>

			<path
   style="fill:url(#liquid_2_)"
   id="liquid_1_"
   d="m 830.797,195.407 -71.88,186.9 0.047,0.018 c -5.302,13.396 -20.729,20.365 -34.416,15.102 -13.687,-5.264 -21.094,-21.015 -16.053,-34.512 l 0,0 45.93,-119.426 c 0,0 5.736,-9.253 16.999,-15.836 11.263,-6.583 20.551,-5.193 33.058,-10.752 12.505,-5.56 26.315,-21.494 26.315,-21.494 z" />

			
				<ellipse
   style="fill:#333333"
   id="top_1_"
   transform="matrix(-0.9333,-0.359,0.359,-0.9333,1592.278,484.6398)"
   cx="841.13702"
   cy="94.480003"
   rx="27.718"
   ry="7.29" />

			<path
   style="opacity:0.3;fill:#ffffff"
   id="side-reflection_1_"
   enable-background="new    "
   d="m 799.503,80.107 c 0,0 2.035,13.787 -0.28,19.809 l -99.675,259.171 0.009,0.003 c -7.113,19.036 2.419,40.289 21.429,47.601 3.299,1.269 6.666,2.022 10.02,2.324 -12.813,-9.64 -18.312,-26.88 -12.433,-42.611 l -0.009,-0.003 97.697,-254.031 c 0,10e-4 -13.299,-12.486 -16.758,-32.263 z" />

			<g
   id="bubbles_1_">
				<circle
   style="opacity:0.5;fill:#ffffff"
   enable-background="new    "
   cx="767.41199"
   cy="247.29401"
   r="2.888"
   id="circle3909" />

				<circle
   style="opacity:0.5;fill:#ffffff"
   enable-background="new    "
   cx="786.34399"
   cy="268.23499"
   r="4.3540001"
   id="circle3911" />

				<circle
   style="opacity:0.5;fill:#ffffff"
   enable-background="new    "
   cx="757.44299"
   cy="293.138"
   r="8.1669998"
   id="circle3913" />

				<circle
   style="opacity:0.5;fill:#ffffff"
   enable-background="new    "
   cx="744.21899"
   cy="308.241"
   r="4.3540001"
   id="circle3915" />

				<circle
   style="opacity:0.5;fill:#ffffff"
   enable-background="new    "
   cx="761.56299"
   cy="340.54199"
   r="2.888"
   id="circle3917" />

			</g>

		</g>

		
	</g>

</g>
    </g>
  </g>
</svg>
