<?xml version="1.0" encoding="UTF-8" standalone="no"?>
<svg
   xmlns:dc="http://purl.org/dc/elements/1.1/"
   xmlns:cc="http://creativecommons.org/ns#"
   xmlns:rdf="http://www.w3.org/1999/02/22-rdf-syntax-ns#"
   xmlns:svg="http://www.w3.org/2000/svg"
   xmlns="http://www.w3.org/2000/svg"
   viewBox="0 0 64 64"
   version="1.1"
   id="svg3344"
   height="64"
   width="64">
  <defs
     id="defs3346" />
  <metadata
     id="metadata3349">
    <rdf:RDF>
      <cc:Work
         rdf:about="">
        <dc:format>image/svg+xml</dc:format>
        <dc:type
           rdf:resource="http://purl.org/dc/dcmitype/StillImage" />
        <dc:title></dc:title>
      </cc:Work>
    </rdf:RDF>
  </metadata>
  <g
     id="layer1">
    <g
       transform="matrix(0.68182259,0,0,0.68182259,-345.50787,44.236988)"
       id="g3627">
      <path
         style="fill:#131b28;fill-rule:nonzero"
         d="m 323.61,20.49 c 0,0 -7.1814,33.76 -7.1814,33.76 0,0 7.1814,-33.76 7.1814,-33.76 z"
         id="path3499" />
      <path
         style="fill:#131b28;fill-rule:nonzero"
         d="m 305.15,20.49 c 0,0 -5.4517,25.22 -5.4517,25.22 0,0 5.4517,-25.222 5.4517,-25.222 l 0,0.002 z"
         id="path3501" />
      <path
         style="fill:#0868ac;fill-rule:nonzero"
         d="m 513.39114,-42.014565 c -8.335,11.980003 -7.2974,27.566005 -0.93018,40.2950042 0.15138,0.30518 0.31006,0.60546 0.46631,0.90575798 0.10012,0.190432 0.19409,0.385742 0.29785,0.573731 0.0586,0.112259 0.1245,0.222162 0.18555,0.329591 0.10862,0.202632 0.21972,0.395509 0.33202,0.59326 0.19776,0.34911902 0.4004,0.69580002 0.60791,1.04249902 0.11475,0.190432 0.22828,0.380851 0.34669,0.57128 0.22949,0.371091 0.46509,0.7373 0.70556,1.1035 0.10012,0.156241 0.19775,0.312501 0.30029,0.463862 0.33204,0.49561 0.67139,0.98877 1.0217,1.474599 0.009,0.01257 0.0182,0.02691 0.0292,0.03901 0.055,0.07809 0.116,0.153806 0.17212,0.231927 0.30274,0.417468 0.61524,0.83007 0.9314,1.237799 0.116,0.148911 0.23315,0.297851 0.35034,0.446769 0.28199,0.354012 0.56885,0.70558 0.8606,1.057102 0.10862,0.131842 0.2185,0.26366 0.32836,0.393058 0.39185,0.46143 0.79101,0.920412 1.1987,1.3696028 0.007,0.0071 0.0171,0.01702 0.0244,0.02435 0.0171,0.01937 0.0317,0.0317 0.0464,0.05121 0.39795,0.434569 0.80566,0.85937 1.2183,1.284198 0.12816,0.131841 0.25879,0.26368 0.39062,0.393082 0.31982,0.322258 0.64452,0.639649 0.9729,0.954579 0.13305,0.126946 0.26489,0.256352 0.39795,0.378421 0.43822,0.412599 0.88134,0.817868 1.333,1.213398 0.007,0.0071 0.0134,0.01257 0.0208,0.01702 0.0769,0.06841 0.15625,0.131841 0.23194,0.197762 0.39795,0.344238 0.80322,0.686039 1.2109,1.023 0.16601,0.134276 0.33448,0.266117 0.50171,0.400388 0.33325,0.26611 0.67016,0.529791 1.0095,0.788581 0.17945,0.136711 0.35889,0.27343 0.53956,0.410159 0.37475,0.27587 0.75195,0.54687 1.1328,0.81299 0.13915,0.100112 0.27344,0.197763 0.41259,0.29296 0.039,0.02691 0.0745,0.05369 0.1135,0.08061 0.36134,0.249022 0.7312,0.488269 1.0999,0.72754 0.15869,0.105007 0.31616,0.214831 0.47608,0.31737 0.5664,0.358891 1.1414,0.712899 1.7224,1.0547 0.15746,0.0904 0.31738,0.178233 0.47606,0.268561 0.42725,0.246588 0.85694,0.48828 1.2927,0.725099 0.2356,0.126946 0.4773,0.246588 0.71534,0.368652 0.30761,0.161136 0.61279,0.324697 0.92529,0.480949 0.0708,0.0343 0.14404,0.06841 0.21363,0.102494 0.12574,0.061 0.25269,0.119642 0.37842,0.183101 0.48461,0.231927 0.9729,0.45899 1.4661,0.678723 0.10501,0.04639 0.2063,0.09281 0.31006,0.139145 0.56518,0.246562 1.1352,0.48339 1.7102,0.71045 0.13794,0.0561 0.2771,0.109876 0.41626,0.163571 0.53222,0.205093 1.0718,0.40773 1.6138,0.598149 0.0684,0.02435 0.1343,0.04639 0.20263,0.07071 0.59449,0.207528 1.1951,0.400389 1.7993,0.588381 0.14404,0.04149 0.2893,0.08789 0.43456,0.129407 0.61524,0.185562 1.2232,0.407711 1.8579,0.5249 40.31,7.3511 52.019,-24.2239998 52.019,-24.2239998 -9.834,12.8119998 -27.29,16.1909988 -43.829,12.4289998 -0.62622,-0.141607 -1.2341,-0.336911 -1.8457,-0.51758 -0.15504,-0.04639 -0.30762,-0.0927 -0.46021,-0.139172 -0.59692,-0.183102 -1.189,-0.375971 -1.7773,-0.578611 -0.0806,-0.02919 -0.16237,-0.05859 -0.24416,-0.08791 -0.52734,-0.185562 -1.04859,-0.380858 -1.56739,-0.581047 -0.14651,-0.05859 -0.29298,-0.114747 -0.43946,-0.173337 -0.56884,-0.224597 -1.13399,-0.45899 -1.69189,-0.703119 -0.11475,-0.0489 -0.22463,-0.100138 -0.33815,-0.148937 -0.47974,-0.217292 -0.95458,-0.437001 -1.42699,-0.664061 -0.13672,-0.06589 -0.27344,-0.129381 -0.4126,-0.197763 -0.37101,-0.181007 -0.738,-0.373999 -1.104,-0.561999 -0.24499,-0.1289878 -0.494,-0.2510118 -0.737,-0.3860008 -0.447,-0.238995 -0.88601,-0.487999 -1.323,-0.742001 -0.148,-0.08299 -0.298,-0.162995 -0.447,-0.248996 -0.581,-0.342 -1.155,-0.696001 -1.723,-1.054999 -0.157,-0.100007 -0.31,-0.207004 -0.465,-0.310001 -0.412,-0.266 -0.822,-0.537 -1.22601,-0.815001 -0.13398,-0.091 -0.263,-0.187997 -0.39499,-0.277998 -0.39,-0.276001 -0.776,-0.555002 -1.159,-0.838 -0.174,-0.129014 -0.34501,-0.258997 -0.514,-0.388001 -0.351,-0.269 -0.7,-0.54 -1.046,-0.818001 -0.15625,-0.124485 -0.31251,-0.249022 -0.46631,-0.373539 -0.43945,-0.36132 -0.87403,-0.725099 -1.3025,-1.098599 -0.0451,-0.03901 -0.094,-0.07809 -0.14282,-0.119642 -0.46387,-0.407559 -0.9192,-0.825051 -1.36961,-1.244949 -0.13062,-0.124501 -0.25758,-0.246591 -0.38575,-0.371102 -0.33325,-0.31738002 -0.66161,-0.63720102 -0.98389,-0.96434902 -0.12939,-0.129401 -0.25879,-0.25635 -0.38574,-0.385752 -0.41015,-0.419908 -0.81299,-0.84472798 -1.2073,-1.27679898 -0.0195,-0.022 -0.0403,-0.0415 -0.0598,-0.0635 -0.41749,-0.456549 -0.8252,-0.922848 -1.2244,-1.393999 -0.10862,-0.129391 -0.21362,-0.253899 -0.32105,-0.38085 -0.29785,-0.358892 -0.59326,-0.72266 -0.88135,-1.0889 -0.108,-0.132001 -0.216,-0.267 -0.323,-0.403002 -0.347,-0.449999 -0.686,-0.898999 -1.018,-1.354999 -9.1823,-12.5250002 -12.481,-29.8000032 -5.142,-43.9870032"
         id="path3581-7" />
      <path
         style="fill:#0868ac;fill-rule:nonzero"
         d="m 539.26464,-52.107565 c -6.0278,8.6743 -5.7007,20.286003 -0.99854,29.460003 0.78858,1.538101 1.6748,3.0298 2.666,4.450702 0.90331,1.293898 1.9043,2.834499 3.103,3.874499 0.43458,0.47852 0.88868,0.944819 1.3525,1.403799 0.11713,0.119641 0.23682,0.234388 0.35645,0.351571 0.45044,0.437009 0.9082,0.866698 1.3818,1.284201 0.0194,0.01466 0.0366,0.03409 0.0561,0.0489 0.005,0.005 0.01,0.0071 0.0134,0.01257 0.52368,0.45899 1.0644,0.900889 1.6138,1.3353982 0.12213,0.0927 0.24292,0.190432 0.36621,0.285651 0.55054,0.422369 1.1121,0.8374 1.6882,1.232901 0.017,0.01257 0.0318,0.02435 0.0489,0.0366 0.25392,0.175771 0.5127,0.339358 0.77026,0.50781 0.12326,0.08061 0.24049,0.166032 0.365,0.241692 0.41138,0.26367 0.82762,0.52002 1.2512,0.7666 0.0599,0.0366 0.11839,0.06841 0.177,0.102494 0.365,0.209962 0.73486,0.417471 1.106,0.61767 0.12938,0.0732 0.26123,0.136711 0.39306,0.205067 0.25635,0.134276 0.5127,0.271 0.77392,0.400391 0.039,0.01937 0.0794,0.0366 0.11713,0.0538 0.53101,0.261222 1.0669,0.5127 1.6138,0.751949 0.11713,0.05129 0.23803,0.0976 0.35644,0.146476 0.43701,0.185563 0.87891,0.366222 1.3232,0.537121 0.188,0.07079 0.37841,0.139172 0.5664,0.207501 0.40284,0.148911 0.80689,0.285648 1.2146,0.422359 0.18431,0.05859 0.365,0.119616 0.54932,0.175798 0.57982,0.180667 1.1523,0.407711 1.7566,0.50781 31.123,5.1562 38.308,-18.8059992 38.308,-18.8059992 -6.477,9.3286 -19.02,13.7789982 -32.405,10.305 -0.59449,-0.156241 -1.1804,-0.327151 -1.7627,-0.510271 -0.17823,-0.0537 -0.35279,-0.112259 -0.52979,-0.170875 -0.41381,-0.134277 -0.82519,-0.275889 -1.2329,-0.42482 -0.18677,-0.06841 -0.37352,-0.136711 -0.55664,-0.207501 -0.44678,-0.170902 -0.88868,-0.349121 -1.3269,-0.534671 -0.11962,-0.05129 -0.24049,-0.0976 -0.35768,-0.151371 -0.54931,-0.239258 -1.0901,-0.490723 -1.6235,-0.754401 -0.27466,-0.134276 -0.54444,-0.275869 -0.81421,-0.415031 -0.15624,-0.0805 -0.31372,-0.161136 -0.46998,-0.241692 -0.34668,-0.187997 -0.69091,-0.383301 -1.0303,-0.58105 -0.0805,-0.04639 -0.16478,-0.0904 -0.24659,-0.139172 -0.42115,-0.246588 -0.83619,-0.50048 -1.2476,-0.76171 -0.12694,-0.08061 -0.24902,-0.168467 -0.37598,-0.251457 -0.271,-0.175771 -0.54199,-0.354001 -0.8081,-0.53467 -0.57374,-0.395512 -1.1316,-0.810551 -1.6821,-1.230501 -0.12694,-0.100138 -0.25389,-0.197762 -0.37841,-0.29785 -5.859,-4.625999 -10.503,-10.947 -12.711,-18.115001 -2.314,-7.434 -1.815,-15.779 2.194,-22.551"
         id="path3583-9" />
      <path
         style="fill:#0868ac;fill-rule:nonzero"
         d="m 561.02564,-59.648565 c -3.5535,5.2295 -3.9026,11.724 -1.4368,17.5 2.6001,6.1304 7.9285,10.940003 14.147,13.220003 0.25635,0.09529 0.5127,0.180667 0.77271,0.26855 0.11349,0.03419 0.22583,0.0733 0.34058,0.107363 0.36621,0.114746 0.72998,0.249023 1.1084,0.319829 17.185,3.320301 21.846,-8.818395 23.087,-10.604995 -4.0832,5.8789 -10.945,7.290005 -19.364,5.2466 -0.665,-0.162 -1.396,-0.402 -2.037,-0.629 -0.822,-0.293 -1.632,-0.627 -2.419,-1.005 -1.495,-0.718 -2.92,-1.59 -4.241,-2.588 -7.534,-5.716 -12.214,-16.621 -7.298,-25.502"
         id="path3585-3" />
    </g>
  </g>
</svg>
