<?xml version="1.0" encoding="UTF-8" standalone="no"?>
<svg
   xmlns:dc="http://purl.org/dc/elements/1.1/"
   xmlns:cc="http://creativecommons.org/ns#"
   xmlns:rdf="http://www.w3.org/1999/02/22-rdf-syntax-ns#"
   xmlns:svg="http://www.w3.org/2000/svg"
   xmlns="http://www.w3.org/2000/svg"
   viewBox="0 0 64 64"
   version="1.1"
   id="svg3336"
   height="64"
   width="64">
  <defs
     id="defs3338" />
  <metadata
     id="metadata3341">
    <rdf:RDF>
      <cc:Work
         rdf:about="">
        <dc:format>image/svg+xml</dc:format>
        <dc:type
           rdf:resource="http://purl.org/dc/dcmitype/StillImage" />
        <dc:title></dc:title>
      </cc:Work>
    </rdf:RDF>
  </metadata>
  <g
     id="layer1">
    <g
       transform="matrix(0.113879,0,0,0.113879,0.25385991,0.91442767)"
       id="g3368">
      <g
         id="g3345">
	<radialGradient
   id="SVGID_1_"
   cx="20.402901"
   cy="16.7355"
   r="602.90222"
   gradientUnits="userSpaceOnUse">
		<stop
   offset="0"
   style="stop-color:#35324B"
   id="stop3348" />

		<stop
   offset="1"
   style="stop-color:#0E0C1A"
   id="stop3350" />

	</radialGradient>

	<rect
   style="fill:url(#SVGID_1_)"
   x="12"
   y="12"
   width="538"
   height="524"
   id="rect3352" />

	<path
   style="fill:#1fd0f6"
   d="m 538,24 0,500 -514,0 0,-500 514,0 M 562,0 0,0 l 0,548 562,0 0,-548 0,0 z"
   id="path3354" />

</g>
      <g
         id="g3356">
	<path
   style="fill:#1fd0f6;stroke:#000000"
   d="m 151.5,149.2 c 0,-1.4 0.7,-2.5 2.4,-2.5 14,-0.4 41.3,-0.7 67.9,-0.7 70.7,0 94.5,36.4 94.9,77 0,56.4 -46.9,80.5 -99.4,80.5 -10.5,0 -20.7,0 -22.8,-0.4 l 0,70.7 c 0,1.8 -0.7,2.8 -2.8,2.8 l -37.7,0 c -1.4,0 -2.4,-0.7 -2.4,-2.5 l 0,-224.9 z m 43.1,120.1 c 2.8,0 8,0.3 24.2,0.3 28.4,0 55.3,-10.9 55.3,-45.9 0,-28.4 -18.2,-43.8 -51.8,-43.8 -14.4,0 -24.9,0.4 -27.7,0.7 l 0,88.7 z"
   id="path3358" />

	<path
   style="fill:#1fd0f6;stroke:#000000"
   d="m 341,366 c -1.3,-0.8 -1.8,-1.8 -1.8,-3.5 l 0,-24.3 c 0,-1.3 1,-1.8 2,-1 14.3,9.8 33.8,16.3 51.8,16.3 20.3,0 27.5,-8.8 27.5,-18.3 0,-10.8 -5,-16 -33,-27.8 -35.3,-14.3 -47,-27.3 -47,-51.3 0,-24.3 20,-46.3 58.8,-46.3 18,0 33.3,4.3 42.3,9.3 1.3,0.8 1.5,1.5 1.5,3.3 l 0,23 c 0,1 -0.8,2 -2.3,1 -11.3,-6.8 -27.3,-11.8 -42.3,-11.8 -23.3,0 -27.3,12 -27.3,18.8 0,8.8 4.5,15.5 30.8,26.3 41,16.3 49.8,30.8 49.8,52.3 0,29 -23,47.3 -60,47.3 C 373,379.2 353.5,374.7 341,366 Z"
   id="path3360" />

</g>
    </g>
  </g>
</svg>
